<svg width="230" height="230" viewBox="0 0 230 230" fill="none" xmlns="http://www.w3.org/2000/svg">
<rect width="230" height="230" rx="77" fill="#FF7F27"/>
<path d="M96.0591 64.5542V178" stroke="white" stroke-width="18" stroke-linecap="round"/>
<path d="M98.8455 65.3503C97.4493 61.1619 104.001 58.0682 106.939 56.8142C115.019 53.3657 123.858 52.7111 132.548 53.099C139.898 53.4272 148.311 55.078 154.794 58.7603C163.062 63.4552 167.701 74.1767 169.81 82.9532C172.369 93.606 171.379 103.427 165.431 112.697C159.449 122.02 150.471 128.148 139.801 130.963C131.585 133.131 123.102 133.764 114.657 132.776C110.05 132.238 105.885 130.092 102.826 126.651" stroke="white" stroke-width="18" stroke-linecap="round"/>
<path d="M66.36 93.5493H66" stroke="white" stroke-width="18" stroke-linecap="round"/>
<path d="M67.8002 141.434H68.5203" stroke="white" stroke-width="18" stroke-linecap="round"/>
</svg>
